<svg width="73" height="30" viewBox="0 0 73 30" fill="none" xmlns="http://www.w3.org/2000/svg">
<path d="M67.545 30V0H72.7736V30H67.545Z" fill="#999999"/>
<path d="M48.7013 30V24.8143L58.6013 5.18571H48.7013V0H64.387V5.05714L54.4442 24.6857H64.387V30H48.7013Z" fill="#999999"/>
<path d="M42.9409 30V24.8143L52.8409 5.18571H42.9409V0H58.6266V5.05714L48.6838 24.6857H58.6266V30H42.9409Z" fill="black"/>
<path d="M35.4928 30L34.5928 25.9714H29.4499L30.5642 20.8286H33.1785L28.5499 0H33.7356L40.6785 30H35.4928ZM21.1356 30L26.707 4.92857H27.3928L29.5356 15L26.2356 30H21.1356Z" fill="black"/>
<path d="M7.45714 30V25.4143H8.4C9.25714 25.4143 9.97143 25.3 10.5429 25.0714C11.1429 24.8143 11.6286 24.4857 12 24.0857C12.4 23.6571 12.6857 23.1857 12.8571 22.6714C13.0571 22.1571 13.1571 21.6571 13.1571 21.1714C13.1571 20.1429 12.8143 19.2429 12.1286 18.4714C11.4714 17.6714 10.4429 17.2714 9.04286 17.2714H7.45714V12.7286H9.04286C9.98571 12.7286 10.7571 12.5429 11.3571 12.1714C11.9571 11.8 12.4 11.3143 12.6857 10.7143C12.9714 10.1143 13.1143 9.47143 13.1143 8.78571C13.1143 8.12857 12.9571 7.47143 12.6429 6.81429C12.3286 6.15714 11.8429 5.62857 11.1857 5.22857C10.5286 4.8 9.7 4.58571 8.7 4.58571H7.45714V0H9.34286C10.9429 0 12.3 0.257143 13.4143 0.771429C14.5571 1.25714 15.4857 1.91429 16.2 2.74286C16.9143 3.54286 17.4429 4.44286 17.7857 5.44286C18.1286 6.44286 18.3 7.44286 18.3 8.44286C18.3 9.78571 18.0429 11.0429 17.5286 12.2143C17.0143 13.3857 16.3 14.3143 15.3857 15C15.9857 15.4286 16.5 15.9857 16.9286 16.6714C17.3857 17.3571 17.7286 18.1143 17.9571 18.9429C18.2143 19.7429 18.3429 20.6 18.3429 21.5143C18.3429 22.9714 18.0143 24.3429 17.3571 25.6286C16.7 26.9143 15.7143 27.9714 14.4 28.8C13.0857 29.6 11.4143 30 9.38571 30H7.45714ZM0 30V0H5.18571V30H0Z" fill="black"/>
</svg>
