<svg width="74" height="30" viewBox="0 0 74 30" fill="none" xmlns="http://www.w3.org/2000/svg">
<path d="M67.9531 30V0H73.1817V30H67.9531Z" fill="#C9C9C9"/>
<path d="M49.1094 30V24.8143L59.0094 5.18571H49.1094V0H64.7951V5.05714L54.8522 24.6857H64.7951V30H49.1094Z" fill="#C9C9C9"/>
<path d="M43.3489 30V24.8143L53.2489 5.18571H43.3489V0H59.0346V5.05714L49.0917 24.6857H59.0346V30H43.3489Z" fill="white"/>
<path d="M35.9006 30L35.0006 25.9714H29.8577L30.972 20.8286H33.5863L28.9577 0H34.1435L41.0863 30H35.9006ZM21.5435 30L27.1149 4.92857H27.8006L29.9435 15L26.6435 30H21.5435Z" fill="white"/>
<path d="M7.8651 30V25.4143H8.80796C9.6651 25.4143 10.3794 25.3 10.9508 25.0714C11.5508 24.8143 12.0365 24.4857 12.408 24.0857C12.808 23.6571 13.0937 23.1857 13.2651 22.6714C13.4651 22.1571 13.5651 21.6571 13.5651 21.1714C13.5651 20.1429 13.2222 19.2429 12.5365 18.4714C11.8794 17.6714 10.8508 17.2714 9.45082 17.2714H7.8651V12.7286H9.45082C10.3937 12.7286 11.1651 12.5429 11.7651 12.1714C12.3651 11.8 12.808 11.3143 13.0937 10.7143C13.3794 10.1143 13.5222 9.47143 13.5222 8.78571C13.5222 8.12857 13.3651 7.47143 13.0508 6.81429C12.7365 6.15714 12.2508 5.62857 11.5937 5.22857C10.9365 4.8 10.108 4.58571 9.10796 4.58571H7.8651V0H9.75082C11.3508 0 12.708 0.257143 13.8222 0.771429C14.9651 1.25714 15.8937 1.91429 16.608 2.74286C17.3222 3.54286 17.8508 4.44286 18.1937 5.44286C18.5365 6.44286 18.708 7.44286 18.708 8.44286C18.708 9.78571 18.4508 11.0429 17.9365 12.2143C17.4222 13.3857 16.708 14.3143 15.7937 15C16.3937 15.4286 16.908 15.9857 17.3365 16.6714C17.7937 17.3571 18.1365 18.1143 18.3651 18.9429C18.6222 19.7429 18.7508 20.6 18.7508 21.5143C18.7508 22.9714 18.4222 24.3429 17.7651 25.6286C17.108 26.9143 16.1222 27.9714 14.808 28.8C13.4937 29.6 11.8222 30 9.79367 30H7.8651ZM0.407959 30V0H5.59367V30H0.407959Z" fill="white"/>
</svg>
